<svg width="160" height="78" viewBox="0 0 160 78" fill="none" xmlns="http://www.w3.org/2000/svg">
<g clip-path="url(#clip0_3426_6025)">
<path d="M59.5601 6.62301C58.3968 5.58449 51.5556 0.405273 30.8178 0.405273C10.0802 0.405273 3.23898 5.58895 2.07129 6.63192C0.961544 7.62586 0.324219 9.05215 0.324219 10.5453V48.5691C0.324219 54.0781 2.78438 59.235 7.07187 62.7116C7.52201 63.0726 7.98106 63.4069 8.4312 63.71L27.9031 76.6847C28.79 77.2731 29.8017 77.5717 30.8178 77.5717C31.834 77.5717 32.8457 77.2775 33.7326 76.6847L53.2046 63.71C55.2548 62.3461 56.9796 60.6078 58.33 58.5442L58.4191 58.4105C60.3133 55.4687 61.3161 52.0635 61.3161 48.5646V10.5408C61.3161 9.0521 60.6787 7.62586 59.5645 6.62301H59.5601ZM59.5512 48.5646C59.5512 51.7247 58.6464 54.8002 56.9395 57.4477L56.8548 57.577C55.6381 59.4401 54.0782 61.009 52.2286 62.2391L32.7565 75.2139C31.5799 75.9983 30.0557 75.9983 28.8791 75.2139L9.40724 62.2391C9.00167 61.9673 8.58719 61.6642 8.18162 61.3388C4.30862 58.1965 2.08912 53.5433 2.08912 48.5646V10.5408C2.08912 9.5513 2.51252 8.60198 3.24789 7.94232C4.32645 6.97958 10.7309 2.16584 30.8178 2.16584C50.9049 2.16584 57.3049 6.97512 58.3879 7.94232C59.1278 8.60643 59.5467 9.55135 59.5467 10.5453V48.5691L59.5512 48.5646Z" fill="white"/>
<path d="M30.8201 4.77832C10.9159 4.77832 5.22903 9.67672 4.99728 9.88175C4.81009 10.0467 4.70312 10.2873 4.70312 10.5369V48.561C4.70312 52.7462 6.56608 56.6596 9.8151 59.2938C10.1538 59.5657 10.5059 59.8242 10.858 60.0604L30.3299 73.0351C30.624 73.2312 31.0118 73.2312 31.3059 73.0351L50.7779 60.0604C52.3378 59.0219 53.6437 57.7026 54.6687 56.1337L54.7356 56.0356C56.1751 53.8026 56.9328 51.2174 56.9328 48.561V10.5369C56.9328 10.2873 56.8258 10.0467 56.6386 9.88175C56.4069 9.67226 50.72 4.77832 30.8157 4.77832H30.8201ZM55.1723 11.4685V26.5158H31.6981V6.54335C46.3879 6.65478 52.7612 9.54301 54.74 10.7108C55.0074 10.8712 55.1723 11.1565 55.1723 11.4685ZM31.6981 57.0518C32.0368 56.3075 33.7884 52.8666 37.0953 52.8666C38.7889 52.8666 39.8274 54.3374 41.0352 56.0401C42.3499 57.9031 43.843 60.0114 46.5127 60.0114C46.9629 60.0114 47.3952 59.9802 47.8141 59.9178L31.7026 70.6506V57.0429L31.6981 57.0518ZM31.6981 28.2764H55.1723V44.4291H31.6981V28.2764ZM6.46357 11.4685C6.46357 11.1565 6.62847 10.8668 6.89588 10.7108C8.88363 9.53855 15.2524 6.65478 29.9377 6.54335V11.4328C26.7555 12.244 21.9822 14.2364 17.9711 17.5079C17.5878 17.8333 8.58502 25.6199 8.58502 37.5918V55.3938C7.21677 53.4103 6.46357 51.0391 6.46357 48.561V11.4685ZM10.9249 57.9254C10.7243 57.765 10.5327 57.5956 10.3455 57.4218V37.5918C10.3455 26.5648 18.8446 19.0768 19.1031 18.854C22.4992 16.0861 26.7867 14.1294 29.9332 13.2558V15.4264C27.1522 16.2465 23.297 18.0873 20.3555 20.6101C13.4608 26.5381 12.4313 34.3292 12.4313 38.4476H14.1917C14.1917 34.6323 15.141 27.4161 21.5054 21.9472C24.0547 19.7543 27.4374 18.0873 29.9332 17.2717V19.4557C28.4446 19.9995 26.3455 21.0513 24.9995 21.9517C20.926 24.6661 16.2552 29.1411 16.2552 39.7669H18.0157C18.0157 30.0369 22.0402 26.0433 25.9755 23.4181C27.0363 22.7139 28.6452 21.8804 29.9332 21.3455V23.6187C28.4179 24.3095 26.2563 25.6065 24.9015 26.8189C20.0524 31.1557 20.0524 37.1149 20.0524 41.0595H21.8129C21.8129 37.2129 21.8129 31.9401 26.0736 28.1337C27.0719 27.2423 28.6363 26.2484 29.9332 25.5798V28.6641C25.0574 31.3785 24.6251 37.3957 24.6073 37.6587V37.6854V67.1116L11.834 58.5984C11.5265 58.3934 11.219 58.1706 10.9249 57.9299V57.9254ZM26.3455 68.266C26.3455 68.2437 26.3544 68.2214 26.3588 68.1947L26.3678 68.1278V37.7433C26.3989 37.3912 26.8268 33.1391 29.9332 30.7679V70.6595L27.1923 68.832L26.3455 68.2705V68.266ZM53.3138 54.9882L53.2871 55.0283C52.9306 55.416 50.1896 58.2508 46.5083 58.2508C44.7523 58.2508 43.6914 56.7532 42.4703 55.0238C41.1733 53.1875 39.6981 51.106 37.0953 51.106C34.4925 51.106 32.8524 52.4565 31.6981 53.807V46.1853H55.1723V48.561C55.1723 50.8386 54.5306 53.0582 53.3138 54.9882Z" fill="white"/>
<path d="M42.5578 20.7391V20.8906H44.3182V20.7391H51.1328V11.9139L50.4331 11.7669C50.2682 11.7312 46.3284 10.9245 44.0731 12.7474C43.8547 12.9257 43.6586 13.1174 43.4848 13.3313C43.3511 13.1664 43.1996 13.0149 43.0302 12.8722C40.8954 11.0715 36.9154 11.6822 36.4697 11.7579L35.7344 11.8828V20.7391H42.5489H42.5578ZM44.3182 16.2418C44.3182 15.288 44.5991 14.5927 45.183 14.1202C46.2526 13.2511 48.1869 13.2511 49.3724 13.3848V18.9785H44.3182V16.2463V16.2418ZM41.8982 14.2183C42.3483 14.5971 42.5578 15.0919 42.5578 15.7783H42.5756C42.5622 15.9298 42.5578 16.0858 42.5578 16.2418V18.9741H37.5037V13.4071C38.7784 13.3001 40.8553 13.3358 41.8982 14.2183Z" fill="white"/>
<path d="M50.2541 22.3838H36.625V24.1444H50.2541V22.3838Z" fill="white"/>
<path d="M38.7186 30.1973C35.9108 30.1973 33.6289 32.4793 33.6289 35.2873C33.6289 38.0953 35.9108 40.3774 38.7186 40.3774C41.5264 40.3774 43.8083 38.0953 43.8083 35.2873C43.8083 32.4793 41.5264 30.1973 38.7186 30.1973ZM38.7186 38.6168C36.8824 38.6168 35.3894 37.1237 35.3894 35.2873C35.3894 33.451 36.8824 31.9578 38.7186 31.9578C40.5548 31.9578 42.0478 33.451 42.0478 35.2873C42.0478 37.1237 40.5548 38.6168 38.7186 38.6168Z" fill="white"/>
<path d="M47.6445 48.6943C45.9687 48.6943 44.6094 50.0582 44.6094 51.7296C44.6094 53.4011 45.9732 54.765 47.6445 54.765C49.3158 54.765 50.6796 53.4011 50.6796 51.7296C50.6796 50.0582 49.3158 48.6943 47.6445 48.6943ZM47.6445 53.0089C46.9403 53.0089 46.3698 52.4383 46.3698 51.7341C46.3698 51.0299 46.9403 50.4594 47.6445 50.4594C48.3486 50.4594 48.9191 51.0299 48.9191 51.7341C48.9191 52.4383 48.3486 53.0089 47.6445 53.0089Z" fill="white"/>
<path d="M48.9973 32.8983C47.5845 32.252 46.1271 31.5879 44.4023 31.5879V33.3485C45.7438 33.3485 46.9695 33.9101 48.2664 34.5029C49.7461 35.1803 51.2792 35.8801 53.1734 35.8801V34.1195C51.6625 34.1195 50.37 33.5267 48.9973 32.9027V32.8983Z" fill="white"/>
<path d="M44.4023 34.7383V36.4989C45.7438 36.4989 46.9695 37.0605 48.2664 37.6533C49.7461 38.3307 51.2792 39.0305 53.1734 39.0305V37.2699C51.6625 37.2699 50.37 36.6771 48.9973 36.0531C47.5845 35.4069 46.1271 34.7427 44.4023 34.7427V34.7383Z" fill="white"/>
<path d="M44.4023 37.6406V39.4012C45.7438 39.4012 46.9695 39.9628 48.2664 40.5556C49.7461 41.2331 51.2792 41.9329 53.1734 41.9329V40.1723C51.6625 40.1723 50.37 39.5795 48.9973 38.9555C47.5845 38.3092 46.1271 37.6451 44.4023 37.6451V37.6406Z" fill="white"/>
<path d="M10.3414 24.7734C10.8762 20.1424 12.7971 18.6225 13.3052 18.2927C13.9024 18.2125 14.4818 18.0119 14.9898 17.6955C15.3776 17.4548 15.7698 17.1651 16.1486 16.8352C16.1843 16.804 16.2155 16.7684 16.2467 16.7327C19.7453 13.8177 23.5781 11.7006 27.6561 10.4348L27.9859 10.3323L27.4645 8.64746L27.1347 8.74998C22.6333 10.1451 18.4216 12.5163 14.611 15.8012C14.4238 15.9483 14.2366 16.0775 14.0539 16.1934C13.3765 16.6124 12.4495 16.6837 11.6829 16.3672C11.2283 16.18 10.6444 15.7789 10.4439 14.9409C9.99374 13.0556 11.4645 12.2711 12.0706 12.124C12.4584 12.0304 12.8105 12.0795 13.069 12.2533C13.274 12.3959 13.4032 12.6143 13.4389 12.8817C13.4834 13.2383 13.3676 13.323 13.3319 13.3542C13.1893 13.4567 12.962 13.4656 12.8417 13.4433C12.6099 13.1403 12.1954 13.011 11.821 13.1581C11.3664 13.3364 11.1436 13.8445 11.3174 14.2991C11.6294 15.1059 12.7213 15.3599 13.5904 15.1415C14.7135 14.8563 15.3375 13.8846 15.1815 12.6678C15.0834 11.9012 14.6868 11.2415 14.0673 10.8092C13.3943 10.3456 12.5386 10.203 11.6606 10.4125C9.77536 10.8627 8.10851 12.748 8.73246 15.351C9.02661 16.5723 9.83775 17.5127 11.0188 17.9985C11.0233 17.9985 11.0277 17.9985 11.0322 18.003C10.0695 19.1574 8.98204 21.1676 8.58984 24.5639L10.3414 24.7689V24.7734Z" fill="white"/>
<path d="M69.9727 26.5157L74.7325 11.4238H78.4317L83.1916 26.5157H80.5933L76.2746 12.9749H76.8406L72.5754 26.5157H69.9771H69.9727ZM72.6245 23.2441V20.8863H80.5487V23.2441H72.6245Z" fill="white"/>
<path d="M89.6141 26.8319C88.5712 26.8319 87.6665 26.5689 86.891 26.0474C86.1155 25.5215 85.5138 24.8083 85.0904 23.908C84.6626 23.0076 84.4531 21.9914 84.4531 20.8593C84.4531 19.7272 84.6671 18.6931 85.0994 17.7928C85.5272 16.8969 86.1378 16.1837 86.9267 15.6667C87.7155 15.1452 88.647 14.8867 89.7166 14.8867C90.7863 14.8867 91.6955 15.1452 92.4264 15.6667C93.1573 16.1882 93.7099 16.8969 94.0888 17.8017C94.4676 18.7065 94.6548 19.7227 94.6548 20.8637C94.6548 22.0048 94.4676 23.0032 94.0888 23.908C93.7099 24.8128 93.1484 25.5259 92.3996 26.0519C91.6509 26.5778 90.7239 26.8363 89.623 26.8363L89.6141 26.8319ZM90.0019 24.5676C90.6793 24.5676 91.2275 24.4116 91.642 24.0996C92.0565 23.7876 92.3595 23.3553 92.5556 22.7937C92.7473 22.2365 92.8453 21.5858 92.8453 20.8548C92.8453 20.1239 92.7473 19.4642 92.5556 18.9115C92.364 18.3544 92.0654 17.922 91.6598 17.61C91.2542 17.298 90.7283 17.142 90.0866 17.142C89.4091 17.142 88.8475 17.3069 88.4108 17.6412C87.9696 17.9711 87.6442 18.4212 87.4347 18.9828C87.2253 19.5444 87.1183 20.1684 87.1183 20.8548C87.1183 21.5412 87.2208 22.1741 87.4258 22.7357C87.6308 23.2973 87.9473 23.7431 88.3751 24.0729C88.803 24.4027 89.3423 24.5676 90.0019 24.5676ZM92.5289 31.5475V23.1413H92.8453V15.1943H95.0782V31.5475H92.5333H92.5289Z" fill="white"/>
<path d="M97.9888 26.5157V11.4238H100.534V18.5731H100.217V26.5202H97.9844L97.9888 26.5157ZM103.448 26.8322C102.343 26.8322 101.421 26.5692 100.672 26.0477C99.9231 25.5218 99.3615 24.8086 98.9827 23.9038C98.6039 22.999 98.4167 21.9828 98.4167 20.8596C98.4167 19.7364 98.6039 18.7023 98.9827 17.7975C99.3615 16.8927 99.9142 16.1841 100.645 15.6626C101.376 15.1411 102.281 14.8826 103.355 14.8826C104.429 14.8826 105.352 15.1411 106.136 15.6626C106.92 16.1841 107.531 16.8927 107.963 17.7886C108.396 18.6845 108.614 19.7096 108.614 20.8551C108.614 22.0006 108.4 23.0035 107.977 23.9038C107.549 24.8042 106.952 25.5173 106.176 26.0432C105.401 26.5692 104.491 26.8277 103.453 26.8277L103.448 26.8322ZM103.061 24.5679C103.716 24.5679 104.26 24.403 104.687 24.0732C105.115 23.7433 105.432 23.2976 105.637 22.736C105.842 22.1744 105.944 21.546 105.944 20.8551C105.944 20.1642 105.842 19.5447 105.628 18.9831C105.418 18.4215 105.093 17.9714 104.652 17.6415C104.211 17.3117 103.653 17.1423 102.976 17.1423C102.334 17.1423 101.808 17.2983 101.403 17.6103C100.997 17.9223 100.699 18.3546 100.507 18.9118C100.315 19.4689 100.217 20.1152 100.217 20.8551C100.217 21.595 100.311 22.2369 100.507 22.794C100.699 23.3511 101.002 23.7879 101.421 24.0999C101.84 24.4119 102.383 24.5679 103.061 24.5679Z" fill="white"/>
<path d="M115.922 26.8324C114.79 26.8324 113.8 26.5784 112.954 26.0658C112.107 25.5577 111.452 24.8534 110.988 23.9531C110.525 23.0572 110.293 22.0232 110.293 20.8554C110.293 19.6876 110.529 18.6268 111.006 17.7309C111.483 16.835 112.143 16.1397 112.989 15.6361C113.836 15.1324 114.812 14.8828 115.922 14.8828C117.032 14.8828 118.052 15.1369 118.899 15.6494C119.746 16.1576 120.401 16.8618 120.869 17.7621C121.337 18.6625 121.573 19.6921 121.573 20.8598C121.573 22.0276 121.337 23.0706 120.865 23.9665C120.392 24.8624 119.733 25.5666 118.89 26.0747C118.043 26.5828 117.054 26.8369 115.922 26.8369V26.8324ZM115.922 24.4612C116.929 24.4612 117.678 24.1269 118.164 23.4539C118.654 22.7853 118.899 21.9162 118.899 20.8554C118.899 19.7946 118.65 18.8853 118.155 18.2301C117.66 17.5794 116.916 17.2496 115.922 17.2496C115.245 17.2496 114.687 17.4011 114.251 17.7042C113.814 18.0073 113.489 18.4307 113.284 18.9745C113.074 19.5138 112.967 20.1422 112.967 20.8554C112.967 21.9518 113.217 22.8254 113.716 23.4806C114.215 24.1314 114.95 24.4612 115.922 24.4612Z" fill="white"/>
<path d="M123.856 26.5157V11.4238H126.401V18.5731H126.084V26.5202H123.852L123.856 26.5157ZM129.316 26.8322C128.21 26.8322 127.288 26.5692 126.539 26.0477C125.79 25.5218 125.229 24.8086 124.85 23.9038C124.471 22.999 124.284 21.9828 124.284 20.8596C124.284 19.7364 124.471 18.7023 124.85 17.7975C125.229 16.8927 125.781 16.1841 126.512 15.6626C127.243 15.1411 128.148 14.8826 129.222 14.8826C130.296 14.8826 131.219 15.1411 132.003 15.6626C132.787 16.1841 133.398 16.8927 133.83 17.7886C134.263 18.6845 134.481 19.7096 134.481 20.8551C134.481 22.0006 134.267 23.0035 133.844 23.9038C133.416 24.8042 132.819 25.5173 132.043 26.0432C131.268 26.5692 130.359 26.8277 129.32 26.8277L129.316 26.8322ZM128.928 24.5679C129.583 24.5679 130.127 24.403 130.555 24.0732C130.982 23.7433 131.299 23.2976 131.504 22.736C131.709 22.1744 131.811 21.546 131.811 20.8551C131.811 20.1642 131.709 19.5447 131.495 18.9831C131.286 18.4215 130.96 17.9714 130.519 17.6415C130.078 17.3117 129.521 17.1423 128.843 17.1423C128.201 17.1423 127.676 17.2983 127.27 17.6103C126.864 17.9223 126.566 18.3546 126.374 18.9118C126.182 19.4689 126.084 20.1152 126.084 20.8551C126.084 21.595 126.178 22.2369 126.374 22.794C126.566 23.3511 126.869 23.7879 127.288 24.0999C127.707 24.4119 128.25 24.5679 128.928 24.5679Z" fill="white"/>
<path d="M141.94 26.8319C140.794 26.8319 139.787 26.5823 138.922 26.0875C138.058 25.5928 137.38 24.9019 136.894 24.0239C136.409 23.1413 136.168 22.1296 136.168 20.9841C136.168 19.745 136.404 18.6708 136.881 17.7616C137.358 16.8523 138.018 16.1436 138.864 15.64C139.711 15.1363 140.687 14.8867 141.797 14.8867C142.969 14.8867 143.967 15.1631 144.787 15.7113C145.608 16.2595 146.218 17.0351 146.615 18.0335C147.011 19.0319 147.163 20.2085 147.065 21.5635H144.56V20.6409C144.551 19.4107 144.337 18.5148 143.909 17.9488C143.482 17.3827 142.813 17.1019 141.895 17.1019C140.861 17.1019 140.094 17.4228 139.591 18.0602C139.087 18.6976 138.838 19.6336 138.838 20.8637C138.838 22.0092 139.087 22.8962 139.591 23.5247C140.094 24.1531 140.83 24.4696 141.792 24.4696C142.416 24.4696 142.951 24.3314 143.401 24.0551C143.852 23.7787 144.199 23.3776 144.444 22.8561L146.94 23.6093C146.508 24.63 145.839 25.4234 144.935 25.9895C144.03 26.5555 143.031 26.8408 141.944 26.8408L141.94 26.8319ZM138.04 21.5591V19.6514H145.826V21.5591H138.04Z" fill="white"/>
<path d="M149.383 26.5157L149.405 11.4238H151.963V20.6457L156.104 15.1946H159.259L154.869 20.8551L159.638 26.5157H156.295L151.968 21.0646V26.5157H149.387H149.383Z" fill="white"/>
<path d="M71.2305 48.7793V33.6875H73.7575V46.4126H80.4249V48.7793H71.2349H71.2305Z" fill="white"/>
<path d="M82.6405 53.8073L84.8199 47.8213L84.86 49.5819L79.9219 37.4541H82.5514L86.0545 46.4262H85.3815L88.7865 37.4541H91.3135L85.0027 53.8073H82.6316H82.6405Z" fill="white"/>
<path d="M97.3797 49.0906C96.212 49.0906 95.2181 48.8321 94.3936 48.3106C93.5691 47.7892 92.9407 47.0805 92.5039 46.1757C92.0671 45.2753 91.8443 44.2548 91.8398 43.1137C91.8443 41.9549 92.0761 40.9253 92.5262 40.0249C92.9763 39.1291 93.6181 38.4204 94.4515 37.9078C95.285 37.3952 96.2699 37.1367 97.4198 37.1367C98.7033 37.1367 99.7953 37.4621 100.687 38.1084C101.578 38.7547 102.157 39.6372 102.434 40.7559L99.9201 41.4379C99.724 40.8317 99.3986 40.3548 98.944 40.016C98.4894 39.6773 97.9724 39.5079 97.393 39.5079C96.7379 39.5079 96.1942 39.6639 95.7663 39.9759C95.3384 40.2879 95.0265 40.7158 94.8215 41.2596C94.6164 41.8033 94.5184 42.4229 94.5184 43.1137C94.5184 44.1879 94.7591 45.0614 95.2404 45.7255C95.7217 46.3896 96.4393 46.7194 97.3886 46.7194C98.0571 46.7194 98.5875 46.5679 98.9752 46.2559C99.363 45.9484 99.6527 45.5071 99.8488 44.9232L102.429 45.4982C102.082 46.6526 101.467 47.5351 100.593 48.1546C99.7195 48.7742 98.6499 49.0817 97.3841 49.0817L97.3797 49.0906Z" fill="white"/>
<path d="M109.361 49.0917C108.216 49.0917 107.209 48.8421 106.344 48.3474C105.48 47.8526 104.802 47.1618 104.316 46.2837C103.831 45.4012 103.59 44.3893 103.59 43.2439C103.59 42.0048 103.826 40.9306 104.303 40.0213C104.78 39.1121 105.439 38.4034 106.286 37.8997C107.133 37.3961 108.109 37.1465 109.219 37.1465C110.391 37.1465 111.389 37.4228 112.209 37.9711C113.029 38.5193 113.64 39.2948 114.037 40.2932C114.433 41.2916 114.585 42.4683 114.487 43.8233H111.982V42.9007C111.973 41.6705 111.759 40.7746 111.331 40.2085C110.903 39.6425 110.235 39.3617 109.317 39.3617C108.283 39.3617 107.516 39.6826 107.013 40.32C106.509 40.9573 106.259 41.8933 106.259 43.1235C106.259 44.269 106.509 45.1561 107.013 45.7845C107.516 46.413 108.252 46.7294 109.214 46.7294C109.838 46.7294 110.373 46.5913 110.823 46.3149C111.273 46.0386 111.621 45.6374 111.866 45.1159L114.362 45.8692C113.93 46.8899 113.261 47.6833 112.356 48.2493C111.452 48.8154 110.453 49.0962 109.366 49.0962L109.361 49.0917ZM105.462 43.8188V41.9112H113.248V43.8188H105.462Z" fill="white"/>
<path d="M121.078 49.1005C120.24 49.1005 119.549 48.9624 119.001 48.6816C118.457 48.4008 118.021 48.0442 117.7 47.6118C117.379 47.1795 117.143 46.716 116.987 46.2301C116.831 45.7398 116.733 45.2763 116.688 44.8395C116.643 44.4028 116.621 44.0462 116.621 43.7743V37.4541H119.179V42.9052C119.179 43.2529 119.202 43.6496 119.251 44.0864C119.3 44.5232 119.416 44.942 119.589 45.3432C119.768 45.7443 120.035 46.0741 120.387 46.3326C120.739 46.5912 121.216 46.7204 121.818 46.7204C122.139 46.7204 122.455 46.6669 122.772 46.5644C123.088 46.4574 123.369 46.2792 123.627 46.0251C123.886 45.771 124.086 45.4189 124.242 44.9732C124.394 44.5276 124.474 43.9615 124.474 43.2751L125.972 43.9125C125.972 44.8752 125.784 45.7488 125.41 46.5332C125.036 47.3177 124.487 47.9417 123.761 48.4052C123.034 48.8688 122.139 49.1005 121.078 49.1005ZM124.777 48.7752V45.2629H124.474V37.4541H127.01V48.7752H124.777Z" fill="white"/>
<path d="M129.922 48.7791V37.4581H132.155V40.9703H132.471V48.7791H129.926H129.922ZM136.745 48.7791V41.9331C136.745 41.1442 136.554 40.5291 136.17 40.0878C135.787 39.6466 135.261 39.4282 134.597 39.4282C133.933 39.4282 133.438 39.6466 133.051 40.0878C132.663 40.5291 132.467 41.0996 132.467 41.8083L131.335 41.055C131.335 40.3196 131.517 39.6599 131.878 39.0761C132.239 38.4877 132.734 38.0242 133.349 37.6854C133.969 37.3467 134.659 37.1773 135.431 37.1773C136.277 37.1773 136.981 37.3556 137.552 37.7166C138.122 38.0777 138.546 38.5679 138.831 39.183C139.112 39.8026 139.254 40.4979 139.254 41.2734V48.7791H136.741H136.745ZM143.537 48.7791V41.9019C143.537 41.1263 143.346 40.5202 142.963 40.0834C142.579 39.6466 142.058 39.4282 141.403 39.4282C140.997 39.4282 140.636 39.5218 140.311 39.7045C139.99 39.8917 139.736 40.1636 139.544 40.5202C139.357 40.8812 139.263 41.3091 139.263 41.8038L138.14 41.1442C138.131 40.3597 138.31 39.6733 138.671 39.0761C139.032 38.4788 139.517 38.0108 140.132 37.6765C140.748 37.3422 141.434 37.1729 142.187 37.1729C143.439 37.1729 144.398 37.5473 145.066 38.3005C145.735 39.0538 146.069 40.0388 146.069 41.2601V48.7746H143.542L143.537 48.7791Z" fill="white"/>
</g>
<defs>
<clipPath id="clip0_3426_6025">
<rect width="160" height="78" fill="white"/>
</clipPath>
</defs>
</svg>
